<?xml version="1.0" encoding="utf-8"?>
<!-- Generator: Adobe Illustrator 28.0.0, SVG Export Plug-In . SVG Version: 6.00 Build 0)  -->
<svg version="1.1" id="Layer_1" xmlns="http://www.w3.org/2000/svg" xmlns:xlink="http://www.w3.org/1999/xlink" x="0px" y="0px"
	 viewBox="0 0 720 720" style="enable-background:new 0 0 720 720;" xml:space="preserve">
<style type="text/css">
	.st0{fill:#DA0000;}
	.st1{fill:#FFFFFF;}
	.st2{fill:#FFFFFF;stroke:#FFFFFF;}
	.st3{fill-rule:evenodd;clip-rule:evenodd;fill:#FFFFFF;stroke:#FFFFFF;stroke-width:3;}
	.st4{fill:none;stroke:#FFFFFF;stroke-width:9;}
</style>
<g>
	<path d="M360,600.6c132.5,0,240-107.4,240-240s-107.5-240-240-240s-240,107.5-240,240S227.4,600.6,360,600.6z"/>
	<path class="st0" d="M536.3,455l-5.8,10l34.6,20l5.8-10L536.3,455z"/>
	<path class="st0" d="M565,234.9l-34.6,20l5.8,10.1l34.6-20L565,234.9z"/>
	<path class="st1" d="M245.5,480.4h-12.9v-18.9h12.9v2.9h-9.6v4.9h9.4v2.9h-9.4v5.2h9.6V480.4z M274.2,480.4h-3.2l-9.8-13.4v13.4
		h-3.3v-18.9h3.4l9.6,13.1v-13.1h3.3V480.4z M295.1,480.4h-3.3v-15.9h-5.7v-2.9h14.7v2.9h-5.7L295.1,480.4L295.1,480.4z
		 M325.5,480.4h-12.9v-18.9h12.9v2.9h-9.6v4.9h9.4v2.9h-9.4v5.2h9.6V480.4z M352.6,480.4h-3.8l-4.2-7h-3.3v7H338v-18.9h8.3
		c3.7,0,6.2,2.4,6.2,5.9s-2.2,5.2-4.5,5.5L352.6,480.4L352.6,480.4L352.6,480.4z M345.8,470.5c1.9,0,3.2-1.2,3.2-3
		c0-1.8-1.4-3-3.2-3h-4.5v6L345.8,470.5L345.8,470.5z M368.1,480.4h-3.3v-18.9h8.3c4,0,6.2,2.7,6.2,5.9s-2.2,5.9-6.2,5.9h-5V480.4
		L368.1,480.4z M372.6,470.5c1.9,0,3.2-1.2,3.2-3c0-1.8-1.4-3-3.2-3h-4.5v6L372.6,470.5L372.6,470.5z M405.6,480.4h-3.8l-4.2-7h-3.3
		v7H391v-18.9h8.3c3.7,0,6.2,2.4,6.2,5.9s-2.2,5.2-4.5,5.5L405.6,480.4L405.6,480.4z M398.8,470.5c1.9,0,3.2-1.2,3.2-3
		c0-1.8-1.4-3-3.2-3h-4.5v6L398.8,470.5L398.8,470.5z M421.1,480.4h-3.3v-18.9h3.3V480.4z M440.6,480.8c-3.5,0-6-1.2-7.7-3l1.8-2.5
		c1.3,1.4,3.3,2.6,6,2.6c2.6,0,3.8-1.3,3.8-2.6c0-4-11-1.5-11-8.4c0-3.1,2.7-5.5,6.9-5.5c2.9,0,5.3,0.9,7.1,2.6l-1.9,2.5
		c-1.5-1.5-3.5-2.1-5.5-2.1s-3.2,0.9-3.2,2.4c0,3.5,11,1.3,11,8.4C447.9,478.1,445.7,480.8,440.6,480.8L440.6,480.8z M472.9,480.4
		h-12.9v-18.9h12.9v2.9h-9.6v4.9h9.4v2.9h-9.4v5.2h9.6V480.4z M491.7,480.8c-3.5,0-6-1.2-7.7-3l1.8-2.5c1.3,1.4,3.3,2.6,6,2.6
		s3.8-1.3,3.8-2.6c0-4-11-1.5-11-8.4c0-3.1,2.7-5.5,6.9-5.5c2.9,0,5.3,0.9,7.1,2.6l-1.9,2.5c-1.5-1.5-3.5-2.1-5.4-2.1
		s-3.2,0.9-3.2,2.4c0,3.5,11,1.3,11,8.4C499,478.1,496.8,480.8,491.7,480.8L491.7,480.8L491.7,480.8z"/>
	<path class="st1" d="M213.1,195.5c0.6-0.5,0.6-1.3,0.1-1.9L202.8,182c-0.5-0.6-1.4-0.6-1.9-0.1l-1.3,1.2c-0.5,0.5-0.6,1.4-0.1,1.9
		l10.4,11.6c0.5,0.5,1.4,0.6,1.9,0.1L213.1,195.5L213.1,195.5z"/>
	<path class="st1" d="M231,181c0.6-0.4,0.7-1.3,0.3-1.9l-9.1-12.6c-0.4-0.6-1.3-0.7-1.9-0.3l-1.5,1.1c-0.6,0.4-0.7,1.3-0.3,1.9
		l9.1,12.6c0.4,0.6,1.3,0.7,1.9,0.3L231,181L231,181z"/>
	<path class="st1" d="M139.4,360v-0.9c0-0.7-0.6-1.4-1.3-1.4h-15.5c-0.7,0-1.4,0.6-1.4,1.4v1.8c0,0.7,0.6,1.4,1.4,1.4h15.5
		c0.7,0,1.4-0.6,1.3-1.4V360z"/>
	<path class="st1" d="M271.1,158.1c0.7-0.3,1-1.1,0.7-1.8l-6.3-14.2c-0.3-0.7-1.1-1-1.8-0.7l-1.6,0.7c-0.7,0.3-1,1.1-0.7,1.8
		l6.3,14.2c0.3,0.7,1.1,1,1.8,0.7L271.1,158.1z"/>
	<path class="st1" d="M292.7,149.9c0.7-0.2,1.1-1,0.9-1.7l-4.8-14.8c-0.2-0.7-1-1.1-1.7-0.9l-1.7,0.6c-0.7,0.2-1.1,1-0.9,1.7
		l4.8,14.8c0.2,0.7,1,1.1,1.7,0.9L292.7,149.9L292.7,149.9z"/>
	<path class="st1" d="M337.8,140.5c0.7-0.1,1.3-0.7,1.2-1.5l-1.6-15.5c-0.1-0.7-0.8-1.3-1.5-1.2l-1.8,0.2c-0.7,0.1-1.3,0.8-1.2,1.5
		l1.6,15.5c0.1,0.7,0.8,1.3,1.5,1.2L337.8,140.5L337.8,140.5L337.8,140.5z"/>
	<path class="st1" d="M315,144c0.7-0.1,1.2-0.9,1-1.6l-3.2-15.2c-0.1-0.7-0.9-1.2-1.6-1.1l-1.8,0.4c-0.7,0.2-1.2,0.9-1,1.6l3.2,15.2
		c0.1,0.7,0.9,1.2,1.6,1L315,144L315,144z"/>
	<path class="st1" d="M250.5,168.5c0.6-0.4,0.9-1.2,0.5-1.8l-7.8-13.5c-0.4-0.6-1.2-0.9-1.8-0.5l-1.6,0.9c-0.6,0.4-0.9,1.2-0.5,1.8
		l7.8,13.5c0.4,0.6,1.2,0.9,1.8,0.5L250.5,168.5z"/>
	<path class="st1" d="M150.4,291c0.2-0.7-0.2-1.5-0.9-1.7l-14.8-4.8c-0.7-0.2-1.5,0.2-1.7,0.9l-0.6,1.7c-0.2,0.7,0.2,1.5,0.9,1.7
		l14.8,4.8c0.7,0.2,1.5-0.2,1.7-0.9L150.4,291L150.4,291z"/>
	<path class="st1" d="M144.4,313.3c0.2-0.7-0.3-1.5-1-1.6l-15.2-3.2c-0.7-0.1-1.4,0.3-1.6,1l-0.4,1.8c-0.2,0.7,0.3,1.4,1,1.6
		l15.2,3.2c0.7,0.1,1.4-0.3,1.6-1L144.4,313.3z"/>
	<path class="st1" d="M140.7,336.1c0.1-0.7-0.5-1.4-1.2-1.5L124,333c-0.7-0.1-1.4,0.5-1.5,1.2l-0.2,1.8c-0.1,0.7,0.5,1.4,1.2,1.5
		l15.5,1.6c0.7,0.1,1.4-0.5,1.5-1.2L140.7,336.1L140.7,336.1z"/>
	<path class="st1" d="M196.7,211.7c0.5-0.5,0.5-1.4-0.1-1.9L185,199.4c-0.6-0.5-1.4-0.5-1.9,0.1l-1.2,1.3c-0.5,0.6-0.4,1.4,0.1,1.9
		l11.6,10.4c0.5,0.5,1.4,0.4,1.9-0.1L196.7,211.7L196.7,211.7z"/>
	<path class="st1" d="M166.2,220.3l1.1-1.5c0.4-0.6,1.3-0.7,1.9-0.3l12.6,9.1c0.6,0.4,0.7,1.3,0.3,1.9L181,231
		c-0.4,0.6-1.3,0.7-1.9,0.3l-12.6-9.1C165.9,221.8,165.8,220.9,166.2,220.3L166.2,220.3z"/>
	<path class="st1" d="M158.8,269.5c0.3-0.7,0-1.5-0.7-1.8l-14.2-6.3c-0.7-0.3-1.5,0-1.8,0.7l-0.7,1.6c-0.3,0.7,0,1.5,0.7,1.8
		l14.2,6.3c0.7,0.3,1.5,0,1.8-0.7L158.8,269.5z"/>
	<path class="st1" d="M360,139.4h0.9c0.7,0,1.4-0.6,1.4-1.3v-15.5c0-0.7-0.6-1.4-1.4-1.4h-1.8c-0.7,0-1.4,0.6-1.4,1.4v15.5
		c0,0.7,0.6,1.3,1.4,1.3H360z"/>
	<path class="st1" d="M561.9,271.1c0.3,0.7,1.1,1,1.8,0.7l14.2-6.3c0.7-0.3,1-1.1,0.7-1.8l-0.7-1.6c-0.3-0.7-1.1-1-1.8-0.7
		l-14.2,6.3c-0.7,0.3-1,1.1-0.7,1.8L561.9,271.1z"/>
	<path class="st1" d="M538.2,227.7l12.6-9.1c0.6-0.4,1.5-0.3,1.9,0.3l1.1,1.5c0.4,0.6,0.3,1.4-0.3,1.9l-12.6,9.1
		c-0.6,0.4-1.5,0.3-1.9-0.3l-1.1-1.5C537.5,229,537.6,228.1,538.2,227.7z"/>
	<path class="st1" d="M576,315c0.2,0.7,0.9,1.2,1.6,1l15.2-3.2c0.7-0.1,1.2-0.9,1-1.6l-0.4-1.8c-0.2-0.7-0.9-1.2-1.6-1l-15.2,3.2
		c-0.7,0.1-1.2,0.9-1,1.6L576,315z"/>
	<path class="st1" d="M570.1,292.7c0.2,0.7,1,1.1,1.7,0.9l14.8-4.8c0.7-0.2,1.1-1,0.9-1.7l-0.6-1.7c-0.2-0.7-1-1.1-1.7-0.9
		l-14.8,4.8c-0.7,0.2-1.1,1-0.9,1.7L570.1,292.7L570.1,292.7z"/>
	<path class="st1" d="M579.5,337.8c0.1,0.7,0.7,1.3,1.5,1.2l15.5-1.6c0.7-0.1,1.3-0.8,1.2-1.5l-0.2-1.8c-0.1-0.7-0.8-1.3-1.5-1.2
		l-15.5,1.6c-0.7,0.1-1.3,0.8-1.2,1.5L579.5,337.8L579.5,337.8L579.5,337.8z"/>
	<path class="st1" d="M524.5,213.1c0.5,0.6,1.4,0.6,1.9,0.1l11.5-10.4c0.5-0.5,0.6-1.4,0.1-1.9l-1.2-1.3c-0.5-0.6-1.4-0.6-1.9-0.1
		l-11.5,10.4c-0.5,0.5-0.6,1.3-0.1,1.9L524.5,213.1L524.5,213.1L524.5,213.1z"/>
	<path class="st1" d="M508.3,196.7c0.5,0.5,1.4,0.5,1.9-0.1l10.4-11.6c0.5-0.6,0.5-1.4-0.1-1.9l-1.3-1.2c-0.5-0.5-1.4-0.4-1.9,0.1
		l-10.4,11.5c-0.5,0.6-0.5,1.4,0.1,1.9L508.3,196.7z"/>
	<path class="st1" d="M429,150.4c0.7,0.2,1.5-0.1,1.7-0.9l4.8-14.8c0.2-0.7-0.2-1.5-0.9-1.7l-1.7-0.6c-0.7-0.2-1.5,0.2-1.7,0.9
		l-4.8,14.8c-0.2,0.7,0.2,1.5,0.9,1.7L429,150.4L429,150.4z"/>
	<path class="st1" d="M384,140.7c0.7,0.1,1.4-0.5,1.5-1.2l1.6-15.5c0.1-0.7-0.5-1.4-1.2-1.5l-1.8-0.2c-0.7-0.1-1.4,0.5-1.5,1.2
		l-1.6,15.5c-0.1,0.7,0.5,1.4,1.2,1.5L384,140.7L384,140.7z"/>
	<path class="st1" d="M450.6,158.8c0.7,0.3,1.5,0,1.8-0.7l6.3-14.2c0.3-0.7,0-1.5-0.7-1.8l-1.6-0.7c-0.7-0.3-1.5,0-1.8,0.7
		l-6.3,14.2c-0.3,0.7,0,1.5,0.7,1.8L450.6,158.8L450.6,158.8z"/>
	<path class="st1" d="M406.8,144.4c0.7,0.2,1.5-0.3,1.6-1l3.2-15.2c0.1-0.7-0.3-1.4-1-1.6l-1.8-0.4c-0.7-0.2-1.4,0.3-1.6,1.1
		l-3.2,15.2c-0.1,0.7,0.3,1.4,1,1.6L406.8,144.4z"/>
	<path class="st1" d="M490.4,182.1c0.6,0.4,1.5,0.3,1.9-0.3l9.1-12.6c0.4-0.6,0.3-1.4-0.3-1.9l-1.5-1.1c-0.6-0.4-1.5-0.3-1.9,0.3
		l-9.1,12.6c-0.4,0.6-0.3,1.4,0.3,1.9L490.4,182.1L490.4,182.1z"/>
	<path class="st1" d="M477.5,152l-8.5,14.6c-0.4,0.6-0.1,1.5,0.5,1.8c0,0,1.4,0.8,2.7,1.6"/>
	<path class="st1" d="M169.4,248.9c0.4-0.6,0.2-1.5-0.5-1.8l-13.5-7.8c-0.6-0.4-1.5-0.2-1.8,0.5l-0.9,1.6c-0.4,0.7-0.1,1.5,0.5,1.9
		l13.5,7.8c0.6,0.4,1.5,0.1,1.8-0.5L169.4,248.9z"/>
	<path class="st1" d="M382.2,579.5c-0.7,0.1-1.3,0.7-1.2,1.5l1.6,15.5c0.1,0.7,0.8,1.3,1.5,1.2l1.8-0.2c0.7-0.1,1.3-0.8,1.2-1.5
		l-1.6-15.5c-0.1-0.7-0.8-1.3-1.5-1.2L382.2,579.5L382.2,579.5z"/>
	<path class="st1" d="M469.5,551.5c-0.6,0.4-0.9,1.2-0.5,1.8l7.8,13.5c0.4,0.6,1.2,0.9,1.8,0.5l1.6-0.9c0.6-0.4,0.9-1.2,0.5-1.8
		l-7.8-13.5c-0.4-0.6-1.2-0.9-1.8-0.5L469.5,551.5z"/>
	<path class="st1" d="M506.9,524.6c-0.6,0.5-0.6,1.3-0.1,1.9l10.4,11.5c0.5,0.5,1.4,0.6,1.9,0.1l1.3-1.2c0.5-0.5,0.6-1.4,0.1-1.9
		l-10.4-11.5c-0.5-0.5-1.4-0.6-1.9-0.1L506.9,524.6L506.9,524.6z"/>
	<path class="st1" d="M523.3,508.3c-0.5,0.5-0.5,1.4,0.1,1.9l11.5,10.4c0.6,0.5,1.4,0.5,1.9-0.1l1.2-1.3c0.5-0.5,0.5-1.4-0.1-1.9
		l-11.5-10.4c-0.5-0.5-1.4-0.5-1.9,0.1L523.3,508.3L523.3,508.3z"/>
	<path class="st1" d="M405,576c-0.7,0.1-1.2,0.9-1,1.6l3.2,15.2c0.1,0.7,0.9,1.2,1.6,1l1.8-0.4c0.7-0.2,1.2-0.9,1-1.6l-3.2-15.2
		c-0.1-0.7-0.9-1.2-1.6-1L405,576L405,576z"/>
	<path class="st1" d="M427.3,570.1c-0.7,0.2-1.1,1-0.9,1.7l4.8,14.8c0.2,0.7,1,1.1,1.7,0.9l1.7-0.6c0.7-0.2,1.1-1,0.9-1.7l-4.8-14.8
		c-0.2-0.7-1-1.1-1.7-0.9L427.3,570.1L427.3,570.1z"/>
	<path class="st1" d="M448.9,562c-0.7,0.3-1,1.1-0.7,1.8l6.3,14.2c0.3,0.7,1.1,1,1.8,0.7l1.6-0.7c0.7-0.3,1-1.1,0.7-1.8l-6.3-14.2
		c-0.3-0.7-1.1-1-1.8-0.7L448.9,562L448.9,562z"/>
	<path class="st1" d="M140.5,382.2c-0.1-0.7-0.7-1.3-1.5-1.2l-15.5,1.6c-0.7,0.1-1.3,0.8-1.2,1.5l0.2,1.8c0.1,0.7,0.8,1.3,1.5,1.2
		l15.5-1.6c0.7-0.1,1.3-0.8,1.2-1.5L140.5,382.2L140.5,382.2z"/>
	<path class="st1" d="M575.6,406.8c-0.2,0.7,0.3,1.4,1,1.6l15.2,3.2c0.7,0.1,1.5-0.3,1.6-1l0.4-1.8c0.1-0.7-0.3-1.5-1.1-1.6
		l-15.2-3.2c-0.7-0.1-1.4,0.3-1.6,1L575.6,406.8L575.6,406.8z"/>
	<path class="st1" d="M579.3,384c-0.1,0.7,0.5,1.4,1.2,1.5l15.5,1.6c0.7,0.1,1.4-0.5,1.5-1.2l0.2-1.8c0.1-0.7-0.5-1.4-1.2-1.5
		L581,381c-0.7-0.1-1.4,0.5-1.5,1.2L579.3,384L579.3,384z"/>
	<path class="st1" d="M598.8,359.1c0-0.7-0.6-1.4-1.4-1.4h-15.5c-0.7,0-1.3,0.6-1.3,1.4v1.8c0,0.7,0.6,1.4,1.3,1.4h15.5
		c0.7,0,1.4-0.6,1.4-1.4V359.1z"/>
	<path class="st1" d="M561.2,450.6c-0.3,0.7,0,1.5,0.7,1.8l14.2,6.3c0.7,0.3,1.5,0,1.8-0.7l0.7-1.6c0.3-0.7,0-1.5-0.7-1.8l-14.2-6.3
		c-0.7-0.3-1.5,0-1.8,0.7L561.2,450.6L561.2,450.6z"/>
	<path class="st1" d="M537.9,490.4c-0.4,0.6-0.3,1.4,0.3,1.9l12.6,9.1c0.6,0.4,1.4,0.3,1.9-0.3l1.1-1.5c0.4-0.6,0.3-1.5-0.3-1.9
		l-12.6-9.1c-0.6-0.4-1.4-0.3-1.9,0.3L537.9,490.4z"/>
	<path class="st1" d="M569.6,429.1c-0.2,0.7,0.1,1.5,0.9,1.7l14.8,4.8c0.7,0.2,1.5-0.2,1.7-0.9l0.6-1.7c0.2-0.7-0.2-1.5-0.9-1.7
		l-14.8-4.8c-0.7-0.2-1.5,0.2-1.7,0.9L569.6,429.1z"/>
	<path class="st1" d="M488.9,539c-0.6,0.4-0.7,1.3-0.3,1.9l9.1,12.6c0.4,0.6,1.3,0.7,1.9,0.3l1.5-1.1c0.6-0.4,0.7-1.3,0.3-1.9
		l-9.1-12.6c-0.4-0.6-1.3-0.7-1.9-0.3L488.9,539z"/>
	<path class="st1" d="M211.7,523.4c-0.6-0.5-1.4-0.5-1.9,0.1L199.4,535c-0.5,0.5-0.4,1.4,0.1,1.9l1.3,1.2c0.6,0.5,1.4,0.5,1.9-0.1
		l10.4-11.5c0.5-0.5,0.4-1.4-0.1-1.9L211.7,523.4L211.7,523.4z"/>
	<path class="st1" d="M181,489c-0.4-0.6-1.3-0.7-1.9-0.3l-12.6,9.1c-0.6,0.4-0.7,1.3-0.3,1.9l1.1,1.5c0.4,0.6,1.3,0.7,1.9,0.3
		l12.6-9.1c0.6-0.4,0.7-1.3,0.3-1.9L181,489L181,489z"/>
	<path class="st1" d="M195.5,507c-0.5-0.5-1.4-0.6-1.9-0.1L182,517.3c-0.6,0.5-0.6,1.4-0.1,1.9l1.2,1.3c0.5,0.5,1.4,0.6,1.9,0.1
		l11.5-10.4c0.6-0.5,0.6-1.3,0.1-1.9L195.5,507z"/>
	<path class="st1" d="M168.5,469.5c-0.4-0.6-1.2-0.9-1.8-0.5l-13.5,7.8c-0.6,0.4-0.9,1.2-0.5,1.9l0.9,1.6c0.4,0.6,1.2,0.9,1.8,0.5
		l13.5-7.8c0.6-0.4,0.9-1.2,0.5-1.8L168.5,469.5z"/>
	<path class="st1" d="M360,580.6h-0.9c-0.7,0-1.4,0.6-1.4,1.3v15.5c0,0.7,0.6,1.4,1.4,1.4h1.8c0.7,0,1.4-0.6,1.4-1.4V582
		c0-0.7-0.6-1.3-1.4-1.3H360z"/>
	<path class="st1" d="M158.1,448.9c-0.3-0.7-1.1-1-1.8-0.7l-14.2,6.3c-0.7,0.3-1,1.1-0.7,1.8l0.7,1.6c0.3,0.7,1.1,1,1.8,0.7
		l14.2-6.3c0.7-0.3,1-1.1,0.7-1.8L158.1,448.9L158.1,448.9z"/>
	<path class="st1" d="M149.9,427.3c-0.2-0.7-1-1.1-1.7-0.9l-14.8,4.8c-0.7,0.2-1.1,1-0.9,1.7l0.6,1.7c0.2,0.7,1,1.1,1.7,0.9
		l14.8-4.8c0.7-0.2,1.1-1,0.9-1.7L149.9,427.3L149.9,427.3z"/>
	<path class="st1" d="M144,405c-0.1-0.7-0.9-1.2-1.6-1l-15.2,3.2c-0.7,0.1-1.2,0.9-1,1.6l0.4,1.8c0.2,0.7,0.9,1.2,1.6,1l15.2-3.2
		c0.7-0.1,1.2-0.9,1-1.6L144,405L144,405z"/>
	<path class="st1" d="M313.2,575.6c-0.7-0.2-1.5,0.3-1.6,1l-3.2,15.2c-0.2,0.7,0.3,1.5,1,1.6l1.8,0.4c0.7,0.2,1.5-0.3,1.6-1
		l3.2-15.2c0.2-0.7-0.3-1.4-1-1.6L313.2,575.6L313.2,575.6z"/>
	<path class="st1" d="M284.5,585.3l4.8-14.8c0.2-0.7,1-1.1,1.7-0.9l1.7,0.6c0.7,0.2,1.1,1,0.9,1.7l-4.8,14.8c-0.2,0.7-1,1.1-1.7,0.9
		l-1.7-0.6C284.6,586.7,284.2,586,284.5,585.3z"/>
	<path class="st1" d="M336,579.3c-0.7-0.1-1.4,0.5-1.5,1.2l-1.6,15.5c-0.1,0.7,0.5,1.4,1.2,1.5l1.8,0.2c0.7,0.1,1.4-0.5,1.5-1.2
		L339,581c0.1-0.7-0.5-1.4-1.2-1.5L336,579.3L336,579.3z"/>
	<path class="st1" d="M229.6,538c-0.6-0.4-1.4-0.3-1.9,0.3l-9.1,12.6c-0.4,0.6-0.3,1.5,0.3,1.9l1.4,1.1c0.6,0.4,1.5,0.3,1.9-0.3
		l9.1-12.6c0.4-0.6,0.3-1.5-0.3-1.9L229.6,538z"/>
	<path class="st1" d="M269.4,561.2c-0.7-0.3-1.5,0-1.8,0.7l-6.3,14.2c-0.3,0.7,0,1.5,0.7,1.8l1.6,0.7c0.7,0.3,1.5,0,1.8-0.7
		l6.3-14.2c0.3-0.7,0-1.5-0.7-1.8L269.4,561.2L269.4,561.2z"/>
	<path class="st1" d="M239.3,564.6l7.8-13.5c0.4-0.7,1.2-0.9,1.9-0.5l1.6,0.9c0.6,0.4,0.9,1.2,0.5,1.8l-7.8,13.5
		c-0.4,0.6-1.2,0.9-1.8,0.5l-1.6-0.9C239.1,566.1,238.9,565.3,239.3,564.6L239.3,564.6z"/>
	<path class="st2" d="M245,149.1l-10,5.8l20,34.6l10-5.8L245,149.1z"/>
	<path class="st2" d="M354.2,119.9v39.9h11.6v-40L354.2,119.9z"/>
	<path class="st2" d="M155,234.9l-5.8,10l34.6,20l5.8-10L155,234.9z"/>
	<path class="st2" d="M159.9,354.2h-39.9v11.6h39.9V354.2z"/>
	<path class="st2" d="M475,149.2l-20,34.6l10,5.8l20-34.6L475,149.2z"/>
	<path class="st2" d="M455,536.3l20,34.6l10-5.8l-20-34.6L455,536.3z"/>
	<path class="st2" d="M600.1,354.2h-39.9v11.6h39.9V354.2z"/>
	<path class="st2" d="M183.7,455.1l-34.6,20l5.8,10.1l34.6-20L183.7,455.1z"/>
	<path class="st1" d="M365.8,560.1h-11.6v39.9h11.6V560.1z"/>
	<path class="st2" d="M254.9,530.5l-20,34.6l10,5.8l20-34.6L254.9,530.5z"/>
	<path class="st2" d="M318.2,250.9v148.6c0,0,0,53.8-60.4,36.9c34.4,20.1,93.3,6.2,93.3-54.4v-131L318.2,250.9z"/>
	<path class="st1" d="M255,424c10.5,0,19-8.5,19-19c0-10.5-8.5-19-19-19c-10.5,0-19,8.5-19,19C236,415.5,244.5,424,255,424z"/>
	<path class="st3" d="M481.3,443.7l-41.1,1h0l-81.3-97.9l82.1-81.7h14.2l-67.6,69.2L481.3,443.7z"/>
	<path class="st1" d="M484.7,251.8h-31.4l-11.5,10.5h42.9L484.7,251.8L484.7,251.8z"/>
	<path class="st4" d="M360,600c132.5,0,240-107.5,240-240S492.6,120,360,120S120,227.4,120,360S227.5,600,360,600z"/>
	<path class="st1" d="M316.5,223.8c0.8,0.5,1.6,0.9,2.5,1.4c2.6,1.5,5.2,3,7.8,4.5c0.3,0.2,0.4,0.1,0.6-0.1c2.2-3.5,4.5-7,6.8-10.5
		c0.1-0.1,0.1-0.2,0.2-0.3c-1.7-0.7-2-2.2-1.8-3.3c0.3-1.2,1.4-2,2.6-2c1.2,0,2.3,0.8,2.6,2c0.2,1,0,2.5-1.8,3.2
		c0.4,0.7,0.8,1.3,1.2,1.9c1.9,2.9,3.8,5.9,5.7,8.8c0.2,0.3,0.3,0.3,0.6,0.1c3.3-1.9,6.6-3.8,9.8-5.7c0.1-0.1,0.2-0.1,0.3-0.2
		c-0.2-0.3-0.5-0.6-0.7-0.9c-1-1.8,0.2-4,2.2-4c2.1,0,3.3,2.1,2.5,3.8c-0.4,0.9-1.1,1.4-2.1,1.5c-0.4,0-0.5,0.2-0.5,0.5
		c-0.4,3-0.8,6-1.1,9.1c-0.3,2.8-0.7,5.5-1,8.3c-0.2,1.5-1.3,2.5-2.9,2.5c-4.9,0-9.7,0-14.6,0c-5,0-9.9,0-14.9,0
		c-0.6,0-1.2-0.1-1.8-0.4c-0.8-0.5-1.2-1.2-1.3-2.1c-0.5-3.7-0.9-7.4-1.4-11.2c-0.3-2.1-0.5-4.2-0.8-6.3c0-0.2-0.1-0.3-0.3-0.3
		c-1.3-0.1-2.1-0.8-2.5-2c-0.4-1.5,0.7-3.1,2.2-3.3c1.3-0.2,2.3,0.6,2.8,1.6c0.5,1.1,0.2,2.4-0.7,3.1
		C316.6,223.6,316.5,223.7,316.5,223.8L316.5,223.8z"/>
</g>
</svg>
